<?xml version="1.0" encoding="UTF-8"?><svg id="Layer_2" xmlns="http://www.w3.org/2000/svg" xmlns:xlink="http://www.w3.org/1999/xlink" viewBox="0 0 483.43 125.35"><defs><style>.cls-1{fill:url(#linear-gradient);}.cls-1,.cls-2,.cls-3,.cls-4{stroke:#fff;stroke-miterlimit:10;}.cls-2{fill:url(#linear-gradient-4);}.cls-3{fill:url(#linear-gradient-3);}.cls-4{fill:url(#linear-gradient-2);}</style><linearGradient id="linear-gradient" x1=".65" y1="61.65" x2="101.1" y2="61.65" gradientUnits="userSpaceOnUse"><stop offset="0" stop-color="#f1faee"/><stop offset=".25" stop-color="#a8dadc"/><stop offset=".5" stop-color="#457b9d"/><stop offset=".75" stop-color="#1d3557"/><stop offset="1" stop-color="#e63946"/></linearGradient><linearGradient id="linear-gradient-2" x1="93.36" y1="63.54" x2="183.48" y2="63.54" xlink:href="#linear-gradient"/><linearGradient id="linear-gradient-3" x1="193.63" y1="63.71" x2="294.15" y2="63.71" xlink:href="#linear-gradient"/><linearGradient id="linear-gradient-4" x1="301.3" y1="62.68" x2="482.93" y2="62.68" xlink:href="#linear-gradient"/></defs><g id="Layer_1-2"><path class="cls-1" d="M101.1,122.27v.52h-33.2v-.52c8.43,0,8.94-7.05.17-32.33L42.96,14.26c-.34-1.38-2.24-1.38-2.75,0l-18.23,53.32c13.59.17,25.11,6.19,36.64,16.51l-.34.34c-8.26-4.99-17.72-7.91-27.35-7.91-4.13,0-8.26.52-12.38,1.72-10.66,31.82-9.29,44.03,7.4,44.03v.52H.82c-.17,0-.17-.17-.17-.34l15.14-43.34c-3.61,1.38-6.88,3.1-10.15,5.33l-4.99-12.56c6.88-2.75,13.24-4.13,19.09-4.3L41.93,4.11c.86-2.41,2.92-3.61,4.99-3.61s4.13,1.2,4.99,3.61l29.93,89.78c8.08,23.05,11.18,28.38,19.26,28.38Z"/><path class="cls-4" d="M183.48,2.56v81.7c0,27.35-19.09,40.25-38.53,40.25s-40.76-13.93-40.76-40.25V24.75c-.34-17.89-2.41-21.84-10.84-21.84v-.34h33.37v.34c-8.43,0-10.49,3.96-10.83,21.84v59.51c0,22.02,16.51,33.02,33.02,33.02s32.85-11.01,32.85-33.02v-32.34h-.17c0-30.79-3.78-45.41-22.7-48.85v-.52h24.6Z"/><path class="cls-3" d="M251.77,111.09c.52,1.38,2.41,1.38,2.75,0l21.33-62.43-.69,1.38c11.87-34.06,10.84-46.96-6.36-46.96v-.52h25.11c.17,0,.34.17.17.17l-41.11,118.51c-.86,2.41-2.92,3.61-5.16,3.61-2.06,0-4.13-1.2-4.99-3.61l-29.75-89.96c-8.26-23.05-11.35-28.21-19.44-28.21v-.52h33.37v.52c-8.6,0-8.94,7.05-.17,32.34h-.17l25.11,75.68Z"/><path class="cls-2" d="M399.17,115.91c4.13,0,8.43-1.38,12.73-5.16v.52c-4.64,8.77-12.38,13.59-22.36,13.59-13.59,0-29.93-25.63-29.93-25.63l-20.3-32.68h-15.48v33.88c.34,17.03,2.58,20.81,10.84,20.81v.52h-33.37v-.52c8.6,0,10.66-3.96,10.83-22.88V25.1c-.17-18.92-2.24-23.05-10.83-23.05v-.52h45.06c44.03,0,46.27,58.65,6.71,64.5,3.61,5.85,18.4,29.24,18.4,29.24.17,0,12.38,20.64,27.69,20.64ZM346.37,64.83c29.07,0,29.24-61.4,0-61.4h-22.53v61.4h22.53ZM482.93,122.27v.52h-33.2v-.52c8.6,0,8.94-7.05.17-32.33l-25.11-75.68c-.34-1.38-2.24-1.38-2.75,0l-10.15,29.76c-1.03,2.92-1.89,5.68-2.75,8.26,11.7,1.2,22.02,7.05,32.33,16.34l-.34.34c-8.26-5.16-17.89-7.91-27.52-7.91-2.41,0-4.82.17-7.22.52-5.68,21.16-3.27,29.41,10.49,29.41v.52h-23.74l10.32-29.24c-5.33,1.2-10.32,3.44-14.96,6.71l-4.99-12.56c8.6-3.27,16.17-4.64,23.39-4.3l16.86-47.99c.86-2.41,2.92-3.61,4.99-3.61s4.13,1.2,4.99,3.61l29.93,89.96c8.08,22.88,11.18,28.21,19.26,28.21Z"/></g></svg>